<svg width="20" height="18" viewBox="0 0 20 18" fill="none" xmlns="http://www.w3.org/2000/svg">
<g clip-path="url(#clip0_228_1413)">
<path fill-rule="evenodd" clip-rule="evenodd" d="M12.0014 16.2566V11.1764H8.00137V16.2566C8.00137 16.8154 7.55137 17.2727 7.00137 17.2727H4.00137C3.45137 17.2727 3.00137 16.8154 3.00137 16.2566V9.14431H1.30137C0.841368 9.14431 0.621367 8.56517 0.971367 8.26036L9.33137 0.609555C9.71137 0.2641 10.2914 0.2641 10.6714 0.609555L19.0314 8.26036C19.3714 8.56517 19.1614 9.14431 18.7014 9.14431H17.0014V16.2566C17.0014 16.8154 16.5514 17.2727 16.0014 17.2727H13.0014C12.4514 17.2727 12.0014 16.8154 12.0014 16.2566Z" fill="white" fill-opacity="0.7"/>
</g>
<defs>
<clipPath id="clip0_228_1413">
<rect width="20" height="17.2727" fill="white" transform="matrix(-1 0 0 1 20 0)"/>
</clipPath>
</defs>
</svg>
