<svg width="35" height="35" viewBox="0 0 35 35" fill="none" xmlns="http://www.w3.org/2000/svg">
<path d="M32.2569 23.067C32.2712 22.9882 32.2681 22.9072 32.2477 22.8297C32.2272 22.7522 32.1901 22.6801 32.1387 22.6186C32.0874 22.557 32.0232 22.5075 31.9506 22.4735C31.8781 22.4395 31.7989 22.4219 31.7188 22.4219H30.625V4.92188C30.625 4.77683 30.5674 4.63773 30.4649 4.53518C30.3623 4.43262 30.2232 4.375 30.0782 4.375H23.5157V1.09375C23.5157 0.94871 23.458 0.80961 23.3555 0.707051C23.2529 0.604492 23.1138 0.546875 22.9688 0.546875H12.0313C11.8862 0.546875 11.7471 0.604492 11.6446 0.707051C11.542 0.80961 11.4844 0.94871 11.4844 1.09375V4.375H4.92191C4.77687 4.375 4.63777 4.43262 4.53521 4.53518C4.43265 4.63773 4.37504 4.77683 4.37504 4.92188V22.4219H3.28129C3.20116 22.4219 3.12201 22.4395 3.04944 22.4735C2.97687 22.5075 2.91266 22.557 2.86133 22.6186C2.81001 22.6801 2.77283 22.7522 2.75242 22.8297C2.73201 22.9072 2.72887 22.9882 2.74322 23.067C3.94993 29.6645 10.1559 34.4531 17.5 34.4531C24.8441 34.4531 31.0501 29.6645 32.2569 23.067ZM28.6507 28.2913C27.5346 27.7706 26.3746 27.3498 25.1844 27.0337C25.5899 25.8984 25.8499 24.7163 25.9579 23.5156H31.044C30.6156 25.2673 29.7975 26.8997 28.6507 28.2913ZM18.0469 30.4331V27.1748C19.9299 27.1973 21.8063 27.4015 23.65 27.7846C23.661 27.787 23.6712 27.7901 23.6822 27.7925C23.1435 28.9447 22.4071 29.9936 21.5062 30.8915C20.373 30.6147 19.2131 30.461 18.0469 30.4331ZM13.4532 30.9025C12.558 30.0059 11.8241 28.9615 11.2838 27.8154C13.1481 27.4175 15.047 27.2036 16.9532 27.1766V30.4331C15.7729 30.4613 14.5992 30.6187 13.4532 30.9025ZM12.0313 10.3906C12.2476 10.3906 12.4591 10.4548 12.6389 10.575C12.8188 10.6951 12.959 10.866 13.0418 11.0658C13.1246 11.2657 13.1462 11.4856 13.104 11.6978C13.0618 11.9099 12.9576 12.1048 12.8047 12.2578C12.6517 12.4107 12.4568 12.5149 12.2447 12.5571C12.0325 12.5993 11.8126 12.5777 11.6127 12.4949C11.4129 12.4121 11.2421 12.2719 11.1219 12.092C11.0017 11.9122 10.9375 11.7007 10.9375 11.4844C10.9378 11.1944 11.0532 10.9164 11.2582 10.7113C11.4633 10.5062 11.7413 10.3909 12.0313 10.3906ZM17.5 12.5781C17.2837 12.5781 17.0722 12.514 16.8924 12.3938C16.7125 12.2736 16.5723 12.1028 16.4895 11.9029C16.4068 11.7031 16.3851 11.4832 16.4273 11.271C16.4695 11.0588 16.5737 10.8639 16.7266 10.711C16.8796 10.558 17.0745 10.4538 17.2867 10.4116C17.4988 10.3694 17.7187 10.3911 17.9186 10.4739C18.1185 10.5567 18.2893 10.6969 18.4095 10.8767C18.5296 11.0566 18.5938 11.2681 18.5938 11.4844C18.5935 11.7744 18.4782 12.0524 18.2731 12.2575C18.0681 12.4625 17.79 12.5778 17.5 12.5781ZM22.9688 10.3906C23.1851 10.3906 23.3966 10.4548 23.5764 10.575C23.7563 10.6951 23.8965 10.866 23.9793 11.0658C24.0621 11.2657 24.0837 11.4856 24.0415 11.6978C23.9993 11.9099 23.8951 12.1048 23.7422 12.2578C23.5892 12.4107 23.3943 12.5149 23.1822 12.5571C22.97 12.5993 22.7501 12.5777 22.5502 12.4949C22.3504 12.4121 22.1795 12.2719 22.0594 12.092C21.9392 11.9122 21.875 11.7007 21.875 11.4844C21.8753 11.1944 21.9907 10.9164 22.1957 10.7113C22.4008 10.5062 22.6788 10.3909 22.9688 10.3906ZM20.7813 18.9318V22.4219H19.6875V18.9318L20.2344 18.6584L20.7813 18.9318ZM16.9532 23.5156V26.0829C14.8988 26.11 12.8526 26.3469 10.8464 26.7901C10.4582 25.735 10.2062 24.6346 10.0967 23.5156H16.9532ZM23.8793 26.7152C21.9602 26.316 20.007 26.1036 18.0469 26.0811V23.5156H24.8596C24.7517 24.6287 24.502 25.7233 24.1164 26.773C24.036 26.755 23.9605 26.7327 23.8793 26.7152ZM8.99844 23.5156C9.10807 24.7222 9.37021 25.9099 9.7786 27.0505C8.60107 27.3625 7.45316 27.7771 6.34805 28.2895C5.20193 26.8983 4.38432 25.2665 3.95607 23.5156H8.99844ZM7.10848 29.1425C8.10334 28.7043 9.13182 28.3468 10.184 28.0734C10.7115 29.2402 11.4174 30.3177 12.2765 31.2673C11.8201 31.4343 11.3784 31.6391 10.9561 31.8797C9.52468 31.1971 8.22275 30.2709 7.10848 29.1425ZM12.2903 32.4396C13.9514 31.7994 15.7201 31.4845 17.5 31.5121C19.28 31.4845 21.0487 31.7994 22.7098 32.4396C19.3449 33.666 15.6552 33.666 12.2903 32.4396ZM24.0439 31.8797C23.6102 31.6331 23.1563 31.4239 22.687 31.2545C23.5465 30.3052 24.2519 29.2272 24.7775 28.0595C25.8424 28.3366 26.8829 28.6998 27.889 29.1455C26.7752 30.2726 25.4742 31.1977 24.0439 31.8797Z" fill="#2AAE1D"/>
<path d="M32.2569 23.067C32.2712 22.9882 32.2681 22.9072 32.2477 22.8297C32.2272 22.7522 32.1901 22.6801 32.1387 22.6186C32.0874 22.557 32.0232 22.5075 31.9506 22.4735C31.8781 22.4395 31.7989 22.4219 31.7188 22.4219H30.625V4.92188C30.625 4.77683 30.5674 4.63773 30.4649 4.53518C30.3623 4.43262 30.2232 4.375 30.0782 4.375H23.5157V1.09375C23.5157 0.94871 23.458 0.80961 23.3555 0.707051C23.2529 0.604492 23.1138 0.546875 22.9688 0.546875H12.0313C11.8862 0.546875 11.7471 0.604492 11.6446 0.707051C11.542 0.80961 11.4844 0.94871 11.4844 1.09375V4.375H4.92191C4.77687 4.375 4.63777 4.43262 4.53521 4.53518C4.43265 4.63773 4.37504 4.77683 4.37504 4.92188V22.4219H3.28129C3.20116 22.4219 3.12201 22.4395 3.04944 22.4735C2.97687 22.5075 2.91266 22.557 2.86133 22.6186C2.81001 22.6801 2.77283 22.7522 2.75242 22.8297C2.73201 22.9072 2.72887 22.9882 2.74322 23.067C3.94993 29.6645 10.1559 34.4531 17.5 34.4531C24.8441 34.4531 31.0501 29.6645 32.2569 23.067ZM28.6507 28.2913C27.5346 27.7706 26.3746 27.3498 25.1844 27.0337C25.5899 25.8984 25.8499 24.7163 25.9579 23.5156H31.044C30.6156 25.2673 29.7975 26.8997 28.6507 28.2913ZM18.0469 30.4331V27.1748C19.9299 27.1973 21.8063 27.4015 23.65 27.7846C23.661 27.787 23.6712 27.7901 23.6822 27.7925C23.1435 28.9447 22.4071 29.9936 21.5062 30.8915C20.373 30.6147 19.2131 30.461 18.0469 30.4331ZM13.4532 30.9025C12.558 30.0059 11.8241 28.9615 11.2838 27.8154C13.1481 27.4175 15.047 27.2036 16.9532 27.1766V30.4331C15.7729 30.4613 14.5992 30.6187 13.4532 30.9025ZM10.6353 18.1046L9.84379 17.7088V15.3125C9.84426 14.8775 10.0173 14.4605 10.3248 14.1529C10.6324 13.8454 11.0494 13.6723 11.4844 13.6719H12.5782C13.0131 13.6723 13.4302 13.8454 13.7377 14.1529C14.0453 14.4605 14.2183 14.8775 14.2188 15.3125V17.7088L13.4273 18.1046C13.3365 18.15 13.2601 18.2198 13.2067 18.3062C13.1533 18.3926 13.125 18.4922 13.125 18.5938V22.4219H10.9375V18.5938C10.9376 18.4922 10.9093 18.3926 10.8559 18.3062C10.8025 18.2198 10.7261 18.15 10.6353 18.1046ZM12.0313 10.3906C12.2476 10.3906 12.4591 10.4548 12.6389 10.575C12.8188 10.6951 12.959 10.866 13.0418 11.0658C13.1246 11.2657 13.1462 11.4856 13.104 11.6978C13.0618 11.9099 12.9576 12.1048 12.8047 12.2578C12.6517 12.4107 12.4568 12.5149 12.2447 12.5571C12.0325 12.5993 11.8126 12.5777 11.6127 12.4949C11.4129 12.4121 11.2421 12.2719 11.1219 12.092C11.0017 11.9122 10.9375 11.7007 10.9375 11.4844C10.9378 11.1944 11.0532 10.9164 11.2582 10.7113C11.4633 10.5062 11.7413 10.3909 12.0313 10.3906ZM17.5 12.5781C17.2837 12.5781 17.0722 12.514 16.8924 12.3938C16.7125 12.2736 16.5723 12.1028 16.4895 11.9029C16.4068 11.7031 16.3851 11.4832 16.4273 11.271C16.4695 11.0588 16.5737 10.8639 16.7266 10.711C16.8796 10.558 17.0745 10.4538 17.2867 10.4116C17.4988 10.3694 17.7187 10.3911 17.9186 10.4739C18.1185 10.5567 18.2893 10.6969 18.4095 10.8767C18.5296 11.0566 18.5938 11.2681 18.5938 11.4844C18.5935 11.7744 18.4782 12.0524 18.2731 12.2575C18.0681 12.4625 17.79 12.5778 17.5 12.5781ZM16.9532 13.6719H18.0469C18.4819 13.6723 18.8989 13.8454 19.2065 14.1529C19.5141 14.4605 19.6871 14.8775 19.6875 15.3125V17.7088L18.8961 18.1046C18.8052 18.15 18.7288 18.2198 18.6754 18.3062C18.622 18.3926 18.5938 18.4922 18.5938 18.5938V22.4219H16.4063V18.5938C16.4063 18.4922 16.378 18.3926 16.3247 18.3062C16.2713 18.2198 16.1949 18.15 16.104 18.1046L15.3125 17.7088V15.3125C15.313 14.8775 15.486 14.4605 15.7936 14.1529C16.1012 13.8454 16.5182 13.6723 16.9532 13.6719ZM22.9688 10.3906C23.1851 10.3906 23.3966 10.4548 23.5764 10.575C23.7563 10.6951 23.8965 10.866 23.9793 11.0658C24.0621 11.2657 24.0837 11.4856 24.0415 11.6978C23.9993 11.9099 23.8951 12.1048 23.7422 12.2578C23.5892 12.4107 23.3943 12.5149 23.1822 12.5571C22.97 12.5993 22.7501 12.5777 22.5502 12.4949C22.3504 12.4121 22.1795 12.2719 22.0594 12.092C21.9392 11.9122 21.875 11.7007 21.875 11.4844C21.8753 11.1944 21.9907 10.9164 22.1957 10.7113C22.4008 10.5062 22.6788 10.3909 22.9688 10.3906ZM22.4219 13.6719H23.5157C23.9506 13.6723 24.3677 13.8454 24.6752 14.1529C24.9828 14.4605 25.1558 14.8775 25.1563 15.3125V17.7088L24.3648 18.1046C24.274 18.15 24.1976 18.2198 24.1442 18.3062C24.0908 18.3926 24.0625 18.4922 24.0625 18.5938V22.4219H21.875V18.5938C21.8751 18.4922 21.8468 18.3926 21.7934 18.3062C21.74 18.2198 21.6636 18.15 21.5728 18.1046L20.7813 17.7088V15.3125C20.7818 14.8775 20.9548 14.4605 21.2623 14.1529C21.5699 13.8454 21.9869 13.6723 22.4219 13.6719ZM20.7813 18.9318V22.4219H19.6875V18.9318L20.2344 18.6584L20.7813 18.9318ZM15.3125 18.9318V22.4219H14.2188V18.9318L14.7657 18.6584L15.3125 18.9318ZM16.9532 23.5156V26.0829C14.8988 26.11 12.8526 26.3469 10.8464 26.7901C10.4582 25.735 10.2062 24.6346 10.0967 23.5156H16.9532ZM23.8793 26.7152C21.9602 26.316 20.007 26.1036 18.0469 26.0811V23.5156H24.8596C24.7517 24.6287 24.502 25.7233 24.1164 26.773C24.036 26.755 23.9605 26.7327 23.8793 26.7152ZM29.5313 5.46875V7.10938H27.3438V8.20312H29.5313V9.84375H27.3438V10.9375H29.5313V12.5781H27.3438V13.6719H29.5313V15.3125H27.3438V16.4062H29.5313V22.4219H25.1563V18.9318L25.9478 18.5361C26.0386 18.4907 26.115 18.4208 26.1684 18.3344C26.2218 18.248 26.2501 18.1484 26.25 18.0469V15.3125C26.2486 14.7932 26.0992 14.2851 25.8194 13.8476C25.5395 13.4102 25.1407 13.0616 24.6698 12.8427C24.9 12.5601 25.0552 12.2239 25.1209 11.8654C25.1866 11.5068 25.1607 11.1374 25.0456 10.7915C24.9304 10.4457 24.7299 10.1344 24.4624 9.88672C24.195 9.63901 23.8693 9.46284 23.5157 9.37453V5.46875H29.5313ZM22.4219 1.64062V9.37453C22.0682 9.46284 21.7426 9.63902 21.4751 9.88672C21.2077 10.1344 21.0071 10.4457 20.892 10.7915C20.7769 11.1374 20.751 11.5068 20.8167 11.8653C20.8824 12.2239 21.0375 12.5601 21.2678 12.8427C20.8588 13.0352 20.5038 13.3259 20.2344 13.6888C19.965 13.3259 19.61 13.0352 19.201 12.8427C19.5137 12.4589 19.6854 11.9795 19.6875 11.4844C19.6875 10.9042 19.4571 10.3478 19.0468 9.93758C18.6366 9.52734 18.0802 9.29688 17.5 9.29688C16.9199 9.29688 16.3635 9.52734 15.9532 9.93758C15.543 10.3478 15.3125 10.9042 15.3125 11.4844C15.3147 11.9795 15.4864 12.4589 15.799 12.8427C15.3901 13.0352 15.0351 13.3259 14.7657 13.6888C14.4962 13.3259 14.1412 13.0352 13.7323 12.8427C13.9625 12.5601 14.1177 12.2239 14.1834 11.8654C14.2491 11.5068 14.2232 11.1374 14.1081 10.7915C13.9929 10.4457 13.7924 10.1344 13.5249 9.88672C13.2575 9.63901 12.9318 9.46284 12.5782 9.37453V1.64062H22.4219ZM5.46879 16.4062H7.65629V15.3125H5.46879V13.6719H7.65629V12.5781H5.46879V10.9375H7.65629V9.84375H5.46879V8.20312H7.65629V7.10938H5.46879V5.46875H11.4844V9.37453C11.1307 9.46284 10.8051 9.63902 10.5376 9.88672C10.2702 10.1344 10.0696 10.4457 9.95453 10.7915C9.83943 11.1374 9.81352 11.5068 9.87921 11.8653C9.94489 12.2239 10.1 12.5601 10.3303 12.8427C9.85936 13.0616 9.4606 13.4102 9.18072 13.8476C8.90084 14.2851 8.75144 14.7932 8.75004 15.3125V18.0469C8.75002 18.1484 8.77828 18.248 8.83167 18.3344C8.88506 18.4208 8.96146 18.4907 9.05231 18.5361L9.84379 18.9318V22.4219H5.46879V16.4062ZM8.99844 23.5156C9.10807 24.7222 9.37021 25.9099 9.7786 27.0505C8.60107 27.3625 7.45316 27.7771 6.34805 28.2895C5.20193 26.8983 4.38432 25.2665 3.95607 23.5156H8.99844ZM7.10848 29.1425C8.10334 28.7043 9.13182 28.3468 10.184 28.0734C10.7115 29.2402 11.4174 30.3177 12.2765 31.2673C11.8201 31.4343 11.3784 31.6391 10.9561 31.8797C9.52468 31.1971 8.22275 30.2709 7.10848 29.1425ZM12.2903 32.4396C13.9514 31.7994 15.7201 31.4845 17.5 31.5121C19.28 31.4845 21.0487 31.7994 22.7098 32.4396C19.3449 33.666 15.6552 33.666 12.2903 32.4396ZM24.0439 31.8797C23.6102 31.6331 23.1563 31.4239 22.687 31.2545C23.5465 30.3052 24.2519 29.2272 24.7775 28.0595C25.8424 28.3366 26.8829 28.6998 27.889 29.1455C26.7752 30.2726 25.4742 31.1977 24.0439 31.8797Z" fill="white"/>
<path d="M15.822 5.71067L15.6083 7.02125C15.5918 7.12256 15.6041 7.22648 15.6438 7.32113C15.6835 7.41578 15.7491 7.49733 15.833 7.55646C15.9169 7.61558 16.0158 7.64988 16.1183 7.65544C16.2208 7.661 16.3228 7.63759 16.4126 7.58789L17.5 6.9868L18.5873 7.58789C18.6771 7.63759 18.7791 7.661 18.8816 7.65544C18.9841 7.64988 19.083 7.61558 19.1669 7.55646C19.2508 7.49733 19.3164 7.41578 19.3562 7.32113C19.3959 7.22648 19.4082 7.12256 19.3916 7.02125L19.178 5.71067L20.079 4.78729C20.1492 4.71533 20.1982 4.62541 20.2206 4.52742C20.243 4.42942 20.238 4.32714 20.206 4.23181C20.1741 4.13649 20.1165 4.05182 20.0396 3.9871C19.9627 3.92238 19.8694 3.88012 19.77 3.86497L18.547 3.67805L17.9951 2.50206C17.9509 2.40802 17.8809 2.3285 17.7933 2.2728C17.7056 2.2171 17.6039 2.18752 17.5 2.18752C17.3961 2.18752 17.2944 2.2171 17.2067 2.2728C17.119 2.3285 17.049 2.40802 17.0049 2.50206L16.453 3.67805L15.23 3.86497C15.1306 3.88012 15.0373 3.92238 14.9604 3.9871C14.8835 4.05182 14.8259 4.13649 14.7939 4.23181C14.762 4.32714 14.757 4.42942 14.7794 4.52742C14.8018 4.62541 14.8508 4.71533 14.921 4.78729L15.822 5.71067ZM16.9066 4.71519C16.9954 4.70158 17.0795 4.66632 17.1515 4.61253C17.2234 4.55874 17.281 4.48807 17.3192 4.40675L17.5 4.02145L17.6808 4.40677C17.7189 4.48809 17.7766 4.55876 17.8485 4.61255C17.9204 4.66634 18.0045 4.7016 18.0933 4.71521L18.5529 4.78517L18.2023 5.1446C18.1425 5.20585 18.0979 5.28029 18.0722 5.36192C18.0464 5.44355 18.0402 5.53009 18.0541 5.61456L18.131 6.08587L17.7646 5.88346C17.6836 5.83862 17.5926 5.8151 17.5 5.8151C17.4074 5.8151 17.3164 5.83862 17.2354 5.88346L16.869 6.08587L16.9459 5.61456C16.9597 5.53009 16.9535 5.44355 16.9278 5.36192C16.9021 5.28029 16.8575 5.20585 16.7977 5.1446L16.4471 4.78515L16.9066 4.71519Z" fill="white"/>
</svg>
