<svg width="34" height="34" viewBox="0 0 34 34" fill="none" xmlns="http://www.w3.org/2000/svg">
<path d="M10.625 21.25C10.4841 21.25 10.349 21.194 10.2494 21.0944C10.1497 20.9948 10.0938 20.8596 10.0938 20.7188C10.0938 20.5779 10.0378 20.4427 9.93815 20.3431C9.83854 20.2435 9.70339 20.1875 9.5625 20.1875C9.42162 20.1875 9.28647 20.2435 9.18686 20.3431C9.08725 20.4427 9.03125 20.5779 9.03125 20.7188C9.03125 21.0339 9.1247 21.3421 9.29985 21.6042C9.47495 21.8663 9.7239 22.0706 10.0151 22.1912C10.3063 22.3118 10.6268 22.3434 10.9359 22.2819C11.2451 22.2204 11.5291 22.0686 11.7519 21.8457C11.9749 21.6228 12.1266 21.3388 12.1882 21.0297C12.2496 20.7205 12.2181 20.4001 12.0974 20.1089C11.9768 19.8176 11.7726 19.5687 11.5104 19.3936C11.2484 19.2185 10.9402 19.125 10.625 19.125C10.5199 19.125 10.4172 19.0939 10.3298 19.0355C10.2425 18.9771 10.1744 18.8941 10.1342 18.7971C10.094 18.7 10.0834 18.5932 10.104 18.4901C10.1245 18.387 10.175 18.2924 10.2494 18.2181C10.3236 18.1438 10.4183 18.0932 10.5214 18.0727C10.6244 18.0522 10.7313 18.0627 10.8283 18.1029C10.9254 18.1431 11.0084 18.2113 11.0667 18.2986C11.1251 18.386 11.1563 18.4887 11.1563 18.5938C11.1563 18.7346 11.2122 18.8698 11.3119 18.9694C11.4115 19.069 11.5466 19.125 11.6875 19.125C11.8284 19.125 11.9635 19.069 12.0632 18.9694C12.1628 18.8698 12.2188 18.7346 12.2188 18.5938C12.2188 18.2786 12.1253 17.9704 11.9502 17.7083C11.7751 17.4462 11.5261 17.2419 11.2349 17.1213C10.9437 17.0007 10.6233 16.9691 10.3141 17.0306C10.0049 17.0921 9.72092 17.2439 9.49806 17.4668C9.27515 17.6897 9.12337 17.9737 9.06185 18.2828C9.00039 18.592 9.03194 18.9125 9.15259 19.2036C9.27318 19.4949 9.47745 19.7438 9.73957 19.9189C10.0016 20.0941 10.3098 20.1875 10.625 20.1875C10.7659 20.1875 10.901 20.2435 11.0007 20.3431C11.1003 20.4427 11.1563 20.5779 11.1563 20.7188C11.1563 20.8596 11.1003 20.9948 11.0007 21.0944C10.901 21.194 10.7659 21.25 10.625 21.25Z" fill="white"/>
<path d="M13.8125 22.3125C13.9534 22.3125 14.0885 22.2565 14.1881 22.1569C14.2878 22.0573 14.3438 21.9221 14.3438 21.7812V20.1875H15.4062V21.7812C15.4062 21.9221 15.4622 22.0573 15.5619 22.1569C15.6615 22.2565 15.7966 22.3125 15.9375 22.3125C16.0784 22.3125 16.2135 22.2565 16.3131 22.1569C16.4128 22.0573 16.4688 21.9221 16.4688 21.7812V17.5312C16.4688 17.3904 16.4128 17.2552 16.3131 17.1556C16.2135 17.056 16.0784 17 15.9375 17C15.7966 17 15.6615 17.056 15.5619 17.1556C15.4622 17.2552 15.4062 17.3904 15.4062 17.5312V19.125H14.3438V17.5312C14.3438 17.3904 14.2878 17.2552 14.1881 17.1556C14.0885 17.056 13.9534 17 13.8125 17C13.6716 17 13.5365 17.056 13.4369 17.1556C13.3372 17.2552 13.2812 17.3904 13.2812 17.5312V21.7812C13.2812 21.9221 13.3372 22.0573 13.4369 22.1569C13.5365 22.2565 13.6716 22.3125 13.8125 22.3125Z" fill="white"/>
<path d="M22.3125 22.3125C22.4534 22.3125 22.5885 22.2565 22.6881 22.1569C22.7878 22.0573 22.8438 21.9221 22.8438 21.7812V20.1875H23.375C23.7977 20.1875 24.2031 20.0196 24.5019 19.7207C24.8008 19.4218 24.9688 19.0164 24.9688 18.5938C24.9688 18.1711 24.8008 17.7657 24.5019 17.4668C24.2031 17.1679 23.7977 17 23.375 17H22.3125C22.1716 17 22.0365 17.056 21.9369 17.1556C21.8372 17.2552 21.7812 17.3904 21.7812 17.5312V21.7812C21.7812 21.9221 21.8372 22.0573 21.9369 22.1569C22.0365 22.2565 22.1716 22.3125 22.3125 22.3125ZM22.8438 18.0625H23.375C23.5159 18.0625 23.651 18.1185 23.7506 18.2181C23.8503 18.3177 23.9062 18.4529 23.9062 18.5938C23.9062 18.7346 23.8503 18.8698 23.7506 18.9694C23.651 19.069 23.5159 19.125 23.375 19.125H22.8438V18.0625Z" fill="white"/>
<path d="M32.4062 27.625H31.3438V13.2653C31.673 13.0209 31.9405 12.7029 32.125 12.3367C32.3095 11.9705 32.4058 11.5663 32.4062 11.1562V9.03125C32.4069 8.93175 32.3793 8.8341 32.3266 8.74969L29.75 4.62719V2.65625C29.7487 2.23395 29.5804 1.82931 29.2818 1.53069C28.9832 1.23208 28.5785 1.06376 28.1562 1.0625H5.84375C5.42146 1.06376 5.01681 1.23208 4.71819 1.53069C4.41958 1.82931 4.25126 2.23395 4.25 2.65625V4.62719L1.67344 8.74969C1.62072 8.8341 1.59309 8.93175 1.59375 9.03125V11.1562C1.59424 11.5663 1.69057 11.9705 1.87505 12.3367C2.05952 12.7029 2.32704 13.0209 2.65625 13.2653V27.625H1.59375C1.45285 27.625 1.31773 27.681 1.2181 27.7806C1.11847 27.8802 1.0625 28.0154 1.0625 28.1562V29.2188C1.06363 30.2047 1.45578 31.1499 2.15294 31.8471C2.8501 32.5442 3.79532 32.9364 4.78125 32.9375H29.2188C30.2047 32.9364 31.1499 32.5442 31.8471 31.8471C32.5442 31.1499 32.9364 30.2047 32.9375 29.2188V28.1562C32.9375 28.0154 32.8815 27.8802 32.7819 27.7806C32.6823 27.681 32.5471 27.625 32.4062 27.625ZM31.3438 11.1562C31.3438 11.5789 31.1758 11.9843 30.8769 12.2832C30.5781 12.5821 30.1727 12.75 29.75 12.75C29.3273 12.75 28.9219 12.5821 28.6231 12.2832C28.3242 11.9843 28.1562 11.5789 28.1562 11.1562V9.5625H31.3438V11.1562ZM5.3125 26.5625H28.6875C28.8284 26.5625 28.9635 26.5065 29.0631 26.4069C29.1628 26.3073 29.2188 26.1721 29.2188 26.0312V13.7594C29.5694 13.8302 29.9306 13.8302 30.2812 13.7594V27.625H3.71875V13.7594C3.89383 13.7934 4.07166 13.8111 4.25 13.8125C4.42834 13.8111 4.60617 13.7934 4.78125 13.7594V26.0312C4.78125 26.1721 4.83722 26.3073 4.93685 26.4069C5.03648 26.5065 5.1716 26.5625 5.3125 26.5625ZM11.39 8.5L12.5853 5.3125H14.8059L14.4075 8.5H11.39ZM14.3438 9.5625V11.1562C14.3438 11.5789 14.1758 11.9843 13.8769 12.2832C13.5781 12.5821 13.1727 12.75 12.75 12.75C12.3273 12.75 11.9219 12.5821 11.6231 12.2832C11.3242 11.9843 11.1562 11.5789 11.1562 11.1562V9.5625H14.3438ZM10.2584 8.5H7.23562L8.82938 5.3125H11.4537L10.2584 8.5ZM10.0938 9.5625V11.1562C10.0938 11.5789 9.92582 11.9843 9.62694 12.2832C9.32806 12.5821 8.92266 12.75 8.5 12.75C8.07734 12.75 7.67194 12.5821 7.37306 12.2832C7.07418 11.9843 6.90625 11.5789 6.90625 11.1562V9.5625H10.0938ZM8.5 13.8125C8.91379 13.8109 9.32142 13.7125 9.69037 13.5253C10.0594 13.338 10.3794 13.067 10.625 12.7341C10.8695 13.0682 11.1893 13.3401 11.5585 13.5274C11.9277 13.7148 12.3359 13.8124 12.75 13.8124C13.1641 13.8124 13.5723 13.7148 13.9415 13.5274C14.3107 13.3401 14.6305 13.0682 14.875 12.7341C15.1195 13.0682 15.4393 13.3401 15.8085 13.5274C16.1777 13.7148 16.5859 13.8124 17 13.8124C17.4141 13.8124 17.8223 13.7148 18.1915 13.5274C18.5607 13.3401 18.8805 13.0682 19.125 12.7341C19.3695 13.0682 19.6893 13.3401 20.0585 13.5274C20.4277 13.7148 20.8359 13.8124 21.25 13.8124C21.6641 13.8124 22.0723 13.7148 22.4415 13.5274C22.8107 13.3401 23.1305 13.0682 23.375 12.7341C23.6195 13.0682 23.9393 13.3401 24.3085 13.5274C24.6777 13.7148 25.0859 13.8124 25.5 13.8124C25.9141 13.8124 26.3223 13.7148 26.6915 13.5274C27.0607 13.3401 27.3805 13.0682 27.625 12.7341C27.7745 12.9367 27.9536 13.1158 28.1562 13.2653V25.5H5.84375V13.2653C6.04642 13.1158 6.22545 12.9367 6.375 12.7341C6.6206 13.067 6.94062 13.338 7.30963 13.5253C7.67858 13.7125 8.08621 13.8109 8.5 13.8125ZM18.5938 9.5625V11.1562C18.5938 11.5789 18.4258 11.9843 18.1269 12.2832C17.8281 12.5821 17.4227 12.75 17 12.75C16.5773 12.75 16.1719 12.5821 15.8731 12.2832C15.5742 11.9843 15.4062 11.5789 15.4062 11.1562V9.5625H18.5938ZM15.4753 8.5L15.8737 5.3125H18.1262L18.5247 8.5H15.4753ZM23.7416 8.5L22.5462 5.3125H25.1706L26.7644 8.5H23.7416ZM27.0938 9.5625V11.1562C27.0938 11.5789 26.9258 11.9843 26.6269 12.2832C26.3281 12.5821 25.9227 12.75 25.5 12.75C25.0773 12.75 24.6719 12.5821 24.3731 12.2832C24.0742 11.9843 23.9062 11.5789 23.9062 11.1562V9.5625H27.0938ZM22.61 8.5H19.5925L19.1941 5.3125H21.4147L22.61 8.5ZM22.8438 9.5625V11.1562C22.8438 11.5789 22.6758 11.9843 22.3769 12.2832C22.0781 12.5821 21.6727 12.75 21.25 12.75C20.8273 12.75 20.4219 12.5821 20.1231 12.2832C19.8242 11.9843 19.6562 11.5789 19.6562 11.1562V9.5625H22.8438ZM30.9188 8.5H27.9544L26.3606 5.3125H28.9266L30.9188 8.5ZM5.3125 2.65625C5.3125 2.51535 5.36849 2.38023 5.4681 2.2806C5.56771 2.18097 5.70286 2.125 5.84375 2.125H28.1562C28.2971 2.125 28.4323 2.18097 28.5319 2.2806C28.6315 2.38023 28.6875 2.51535 28.6875 2.65625V4.25H5.3125V2.65625ZM5.07344 5.3125H7.63938L6.04563 8.5H3.08125L5.07344 5.3125ZM2.65625 9.5625H5.84375V11.1562C5.84375 11.5789 5.67582 11.9843 5.37694 12.2832C5.07806 12.5821 4.67269 12.75 4.25 12.75C3.82731 12.75 3.42194 12.5821 3.12305 12.2832C2.82416 11.9843 2.65625 11.5789 2.65625 11.1562V9.5625ZM31.875 29.2188C31.875 29.9232 31.5951 30.5989 31.097 31.097C30.5989 31.5951 29.9232 31.875 29.2188 31.875H4.78125C4.07677 31.875 3.40114 31.5951 2.903 31.097C2.40485 30.5989 2.125 29.9232 2.125 29.2188V28.6875H31.875V29.2188Z" fill="#2AAE1D"/>
<path d="M26.5625 14.875H7.4375C7.29661 14.875 7.16146 14.931 7.06185 15.0306C6.96224 15.1302 6.90625 15.2654 6.90625 15.4062V23.9062C6.90625 24.0471 6.96224 24.1823 7.06185 24.2819C7.16146 24.3815 7.29661 24.4375 7.4375 24.4375H26.5625C26.7034 24.4375 26.8385 24.3815 26.9381 24.2819C27.0378 24.1823 27.0938 24.0471 27.0938 23.9062V15.4062C27.0938 15.2654 27.0378 15.1302 26.9381 15.0306C26.8385 14.931 26.7034 14.875 26.5625 14.875ZM26.0312 23.375H7.96875V15.9375H26.0312V23.375Z" fill="white"/>
<path d="M19.125 17C18.7027 17.0013 18.2981 17.1696 17.9994 17.4682C17.7008 17.7668 17.5325 18.1715 17.5312 18.5938V20.7188C17.5312 21.1414 17.6992 21.5468 17.9981 21.8457C18.2969 22.1446 18.7023 22.3125 19.125 22.3125C19.5477 22.3125 19.9531 22.1446 20.2519 21.8457C20.5508 21.5468 20.7188 21.1414 20.7188 20.7188V18.5938C20.7175 18.1715 20.5492 17.7668 20.2506 17.4682C19.9519 17.1696 19.5473 17.0013 19.125 17ZM19.6562 20.7188C19.6562 20.8596 19.6003 20.9948 19.5006 21.0944C19.401 21.194 19.2659 21.25 19.125 21.25C18.9841 21.25 18.849 21.194 18.7494 21.0944C18.6497 20.9948 18.5938 20.8596 18.5938 20.7188V18.5938C18.5938 18.4529 18.6497 18.3177 18.7494 18.2181C18.849 18.1185 18.9841 18.0625 19.125 18.0625C19.2659 18.0625 19.401 18.1185 19.5006 18.2181C19.6003 18.3177 19.6562 18.4529 19.6562 18.5938V20.7188Z" fill="white"/>
</svg>
