<svg width="32" height="32" viewBox="0 0 32 32" fill="none" xmlns="http://www.w3.org/2000/svg">
<path fill-rule="evenodd" clip-rule="evenodd" d="M29.6014 32H24.6784V27.1984C24.6784 27.0454 24.5524 26.9194 24.3994 26.9194C24.2464 26.9194 24.1204 27.0454 24.1204 27.1984V32H7.8796V27.1984C7.8796 27.0454 7.7536 26.9194 7.60059 26.9194C7.44759 26.9194 7.32159 27.0454 7.32159 27.1984V32H2.39851C2.09701 32 1.854 31.757 1.854 31.451V24.9079C1.854 21.6363 4.69355 18.9723 8.1856 18.9723H9.99463V22.7433C9.99463 22.8198 10.0216 22.8919 10.0756 22.9414L14.1392 26.9464C14.2022 27.9139 15.0122 28.6879 16.0022 28.6879C16.5107 28.6879 16.9697 28.4809 17.3072 28.1479V29.795C17.3072 29.9525 17.4332 30.074 17.5863 30.074C17.7393 30.074 17.8653 29.9525 17.8653 29.795V26.9419L21.9243 22.9414C21.9783 22.8919 22.0098 22.8198 22.0098 22.7433V18.9723H23.8143C27.3064 18.9723 30.1504 21.6363 30.1504 24.9079V31.451C30.1504 31.757 29.9029 32 29.6014 32ZM10.5481 18.9723H12.1187C12.4247 18.9723 12.6677 19.2153 12.6677 19.5213C12.6677 21.3573 14.1617 22.8514 16.0022 22.8514C17.8383 22.8514 19.3323 21.3573 19.3323 19.5213C19.3323 19.2153 19.5798 18.9723 19.8813 18.9723H21.4518V22.6308L17.7708 26.2489C17.5322 25.5019 16.8257 24.9619 16.0022 24.9619C15.1742 24.9619 14.4722 25.5019 14.2292 26.2489L10.5481 22.6308V18.9723ZM16.0022 25.5154C16.7222 25.5154 17.3072 26.1004 17.3072 26.8204V26.8249C17.3072 27.5449 16.7222 28.1299 16.0022 28.1299C15.2777 28.1299 14.6927 27.5449 14.6927 26.8249C14.6927 26.1049 15.2777 25.5154 16.0022 25.5154Z" fill="#2AAE1D"/>
<path fill-rule="evenodd" clip-rule="evenodd" d="M18.7924 17.7303C17.9328 18.0948 17.0148 18.3108 16.0833 18.3243C16.0698 18.3243 16.0788 18.3243 16.0608 18.3243C16.0473 18.3243 16.0563 18.3243 16.0383 18.3243C15.0618 18.3108 14.1033 18.0768 13.2078 17.6808V19.5213C13.2078 21.0603 14.4588 22.3114 16.0023 22.3114C17.5413 22.3114 18.7924 21.0603 18.7924 19.5213V17.7303Z" fill="white"/>
<path fill-rule="evenodd" clip-rule="evenodd" d="M16.0607 17.7843C16.0562 17.7843 16.0517 17.7843 16.0472 17.7843C14.2651 17.7438 12.4201 16.9203 10.9846 15.5162C9.56256 14.1302 8.74805 12.3797 8.74805 10.7237V6.87161H9.84606V10.7237C9.84606 12.0872 10.5391 13.5497 11.7541 14.7332C12.9826 15.9393 14.5531 16.6503 16.0607 16.6908C17.5682 16.6503 19.1387 15.9393 20.3717 14.7332C21.5822 13.5497 22.2798 12.0872 22.2798 10.7237V6.87161H23.3733V10.7237C23.3733 12.3797 22.5588 14.1302 21.1367 15.5162C19.7057 16.9203 17.8607 17.7438 16.0742 17.7843C16.0697 17.7843 16.0652 17.7843 16.0607 17.7843Z" fill="#2AAE1D"/>
<path fill-rule="evenodd" clip-rule="evenodd" d="M20.1829 9.34215H11.9388C11.7813 9.34215 11.6327 9.27465 11.5292 9.15765L9.52222 6.87161H22.5994L20.5969 9.15765C20.4934 9.27465 20.3404 9.34215 20.1829 9.34215Z" fill="white"/>
<path fill-rule="evenodd" clip-rule="evenodd" d="M22.8288 6.3316H9.29706C8.99555 6.3316 8.74805 6.08859 8.74805 5.78709V3.16805C8.74805 1.42202 10.1701 0 11.9161 0H20.2097C21.9558 0 23.3733 1.42202 23.3733 3.16805V5.78709C23.3733 6.08859 23.1303 6.3316 22.8288 6.3316Z" fill="white"/>
</svg>
