<svg width="38" height="30" viewBox="0 0 38 30" fill="none" xmlns="http://www.w3.org/2000/svg">
<g clip-path="url(#clip0_228_1304)">
<path fill-rule="evenodd" clip-rule="evenodd" d="M12.9112 0L22.1138 2.41171L21.1688 5.86047L11.9665 3.44897L12.9112 0Z" fill="#2AAE1D"/>
<path fill-rule="evenodd" clip-rule="evenodd" d="M10.0031 10.6151L19.2057 13.0265L18.261 16.4755L9.05842 14.0638L10.0031 10.6151Z" fill="#2AAE1D"/>
<path d="M12.0995 7.4745C11.838 8.40126 11.4435 9.28709 10.9279 10.1056L18.6665 12.1335C18.6379 11.1723 18.7488 10.212 18.9959 9.28133C19.2529 8.31442 19.6665 7.3449 20.2549 6.37255L12.4979 4.33984C12.51 5.46728 12.3717 6.50934 12.0995 7.4745Z" fill="#2AAE1D"/>
<path d="M20.5666 7.31793L36.3468 11.4533C36.3714 11.4583 36.3956 11.4647 36.4194 11.4726C38.3136 12.0065 38.5403 14.4753 36.9092 15.3967C36.4167 15.6765 35.8323 15.7579 35.2796 15.6237C35.2558 15.6191 35.2324 15.6131 35.2094 15.6056L19.4125 11.4657C19.4392 10.7898 19.5404 10.1188 19.7143 9.46412C19.9152 8.71972 20.2012 7.99979 20.5668 7.31793H20.5666Z" fill="#2AAE1D"/>
<path d="M25.5105 28.8381C25.6681 28.8381 25.8191 28.8993 25.9305 29.0083C26.0419 29.1172 26.1045 29.265 26.1045 29.4191C26.1045 29.5731 26.0419 29.7209 25.9305 29.8298C25.8191 29.9388 25.6681 30 25.5105 30H0.593899C0.436371 30 0.285292 29.9388 0.173901 29.8298C0.0625114 29.7209 -6.29425e-05 29.5731 -6.29425e-05 29.4191C-6.29425e-05 29.265 0.0625114 29.1172 0.173901 29.0083C0.285292 28.8993 0.436371 28.8381 0.593899 28.8381H25.5105Z" fill="white"/>
<path d="M2.94457 30H23.1598C23.2378 30 23.3151 29.985 23.3871 29.9558C23.4592 29.9266 23.5247 29.8838 23.5798 29.8299C23.635 29.7759 23.6787 29.7119 23.7086 29.6414C23.7384 29.5709 23.7538 29.4954 23.7538 29.4191V25.0969C23.7538 25.0206 23.7384 24.945 23.7086 24.8745C23.6787 24.8041 23.635 24.74 23.5798 24.6861C23.5247 24.6321 23.4592 24.5893 23.3871 24.5601C23.3151 24.531 23.2378 24.5159 23.1598 24.5159H2.94457C2.86657 24.5159 2.78933 24.531 2.71727 24.5601C2.6452 24.5893 2.57972 24.6321 2.52457 24.6861C2.46941 24.74 2.42566 24.8041 2.39581 24.8745C2.36596 24.945 2.3506 25.0206 2.3506 25.0969V29.4191C2.3506 29.4954 2.36596 29.5709 2.39581 29.6414C2.42566 29.7119 2.46941 29.7759 2.52457 29.8299C2.57972 29.8838 2.6452 29.9266 2.71727 29.9558C2.78933 29.985 2.86657 30 2.94457 30Z" fill="white"/>
<path d="M21.1853 20.1937H5.10711C5.02911 20.1937 4.95187 20.2087 4.87981 20.2379C4.80774 20.2671 4.74226 20.3099 4.68711 20.3639C4.63195 20.4178 4.5882 20.4819 4.55836 20.5523C4.52851 20.6228 4.51315 20.6984 4.51315 20.7747V23.7899H21.7793V20.7747C21.7793 20.6984 21.7639 20.6228 21.7341 20.5523C21.7042 20.4819 21.6605 20.4178 21.6053 20.3639C21.5502 20.3099 21.4847 20.2671 21.4126 20.2379C21.3406 20.2087 21.2633 20.1937 21.1853 20.1937Z" fill="white"/>
</g>
<defs>
<clipPath id="clip0_228_1304">
<rect width="38" height="30" fill="white" transform="matrix(-1 0 0 1 38 0)"/>
</clipPath>
</defs>
</svg>
