<svg width="32" height="35" viewBox="0 0 32 35" fill="none" xmlns="http://www.w3.org/2000/svg">
<mask id="mask0_228_1232" style="mask-type:luminance" maskUnits="userSpaceOnUse" x="0" y="1" width="32" height="34">
<path d="M32 1.04999H0V34.65H32V1.04999Z" fill="white"/>
</mask>
<g mask="url(#mask0_228_1232)">
<path d="M26.1813 33.6L26.3147 32.0292C26.4027 31.0123 26.1348 29.9966 25.5613 29.1722C24.9879 28.3476 24.1479 27.7706 23.1987 27.5492L18.3307 26.4138V18.375C18.3307 17.6787 18.0673 17.0111 17.5984 16.5188C17.1296 16.0265 16.4937 15.75 15.8307 15.75C15.1676 15.75 14.5317 16.0265 14.0629 16.5188C13.594 17.0111 13.3307 17.6787 13.3307 18.375V31.255L11.364 29.7108C10.9704 29.4021 10.4841 29.2527 9.9942 29.2896C9.50424 29.3267 9.04338 29.5478 8.69593 29.9124C8.34851 30.2771 8.13776 30.7609 8.10227 31.2753C8.06678 31.7898 8.20892 32.3004 8.50267 32.7138L9.136 33.6" stroke="white" stroke-width="1.5" stroke-linecap="round" stroke-linejoin="round"/>
<path d="M11.8334 5.77498C11.8334 6.25758 11.9239 6.73546 12.0998 7.18133C12.2757 7.6272 12.5335 8.03234 12.8585 8.3736C13.1835 8.71485 13.5694 8.98555 13.994 9.17023C14.4186 9.35492 14.8738 9.44998 15.3334 9.44998C15.793 9.44998 16.2482 9.35492 16.6727 9.17023C17.0974 8.98555 17.4832 8.71485 17.8083 8.3736C18.1332 8.03234 18.3911 7.6272 18.567 7.18133C18.7428 6.73546 18.8334 6.25758 18.8334 5.77498C18.8334 5.29237 18.7428 4.81449 18.567 4.36862C18.3911 3.92275 18.1332 3.51762 17.8083 3.17635C17.4832 2.8351 17.0974 2.5644 16.6727 2.37972C16.2482 2.19504 15.793 2.09998 15.3334 2.09998C14.8738 2.09998 14.4186 2.19504 13.994 2.37972C13.5694 2.5644 13.1835 2.8351 12.8585 3.17635C12.5335 3.51762 12.2757 3.92275 12.0998 4.36862C11.9239 4.81449 11.8334 5.29237 11.8334 5.77498Z" stroke="#2AAE1D" stroke-width="1.5" stroke-linecap="round" stroke-linejoin="round"/>
<path d="M18.3827 11.4309C17.4763 10.8256 16.4251 10.5024 15.351 10.4987C14.2767 10.4949 13.2235 10.8109 12.3134 11.4099" stroke="#2AAE1D" stroke-width="1.5" stroke-linecap="round" stroke-linejoin="round"/>
<path d="M2.83337 15.225C2.83337 15.7076 2.92391 16.1855 3.0998 16.6313C3.27568 17.0772 3.53349 17.4823 3.85849 17.8237C4.18351 18.1648 4.56935 18.4356 4.99399 18.6203C5.41863 18.8049 5.87375 18.9 6.33337 18.9C6.793 18.9 7.24812 18.8049 7.67276 18.6203C8.0974 18.4356 8.48324 18.1648 8.80825 17.8237C9.13325 17.4823 9.39107 17.0772 9.56695 16.6313C9.74284 16.1855 9.83337 15.7076 9.83337 15.225C9.83337 14.7424 9.74284 14.2644 9.56695 13.8186C9.39107 13.3728 9.13325 12.9676 8.80825 12.6264C8.48324 12.2851 8.0974 12.0144 7.67276 11.8297C7.24812 11.645 6.793 11.55 6.33337 11.55C5.87375 11.55 5.41863 11.645 4.99399 11.8297C4.56935 12.0144 4.18351 12.2851 3.85849 12.6264C3.53349 12.9676 3.27568 13.3728 3.0998 13.8186C2.92391 14.2644 2.83337 14.7424 2.83337 15.225Z" stroke="#2AAE1D" stroke-width="1.5" stroke-linecap="round" stroke-linejoin="round"/>
<path d="M8.86804 20.5786C7.54691 19.8849 6.01997 19.7601 4.61257 20.2311C3.20517 20.7021 2.02855 21.7315 1.33337 23.1" stroke="#2AAE1D" stroke-width="1.5" stroke-linecap="round" stroke-linejoin="round"/>
<path d="M8.33337 7.34998H6.33337" stroke="#2AAE1D" stroke-width="1.5" stroke-linecap="round" stroke-linejoin="round"/>
<path d="M8.33337 3.14998L6.33337 2.09998" stroke="#2AAE1D" stroke-width="1.5" stroke-linecap="round" stroke-linejoin="round"/>
<path d="M22.3334 7.34998H24.3334" stroke="#2AAE1D" stroke-width="1.5" stroke-linecap="round" stroke-linejoin="round"/>
<path d="M22.3334 3.14998L24.3334 2.09998" stroke="#2AAE1D" stroke-width="1.5" stroke-linecap="round" stroke-linejoin="round"/>
<path d="M21.8334 15.225C21.8334 15.7076 21.9239 16.1855 22.0998 16.6313C22.2756 17.0772 22.5335 17.4823 22.8584 17.8237C23.1835 18.1648 23.5694 18.4356 23.994 18.6203C24.4186 18.8049 24.8738 18.9 25.3334 18.9C25.793 18.9 26.2482 18.8049 26.6727 18.6203C27.0974 18.4356 27.4832 18.1648 27.8083 17.8237C28.1332 17.4823 28.3911 17.0772 28.567 16.6313C28.7428 16.1855 28.8334 15.7076 28.8334 15.225C28.8334 14.7424 28.7428 14.2644 28.567 13.8186C28.3911 13.3728 28.1332 12.9676 27.8083 12.6264C27.4832 12.2851 27.0974 12.0144 26.6727 11.8297C26.2482 11.645 25.793 11.55 25.3334 11.55C24.8738 11.55 24.4186 11.645 23.994 11.8297C23.5694 12.0144 23.1835 12.2851 22.8584 12.6264C22.5335 12.9676 22.2756 13.3728 22.0998 13.8186C21.9239 14.2644 21.8334 14.7424 21.8334 15.225Z" stroke="#2AAE1D" stroke-width="1.5" stroke-linecap="round" stroke-linejoin="round"/>
<path d="M22.8 20.5786C24.121 19.8846 25.6478 19.7597 27.0552 20.2305C28.4626 20.7012 29.6394 21.7302 30.3347 23.0986" stroke="#2AAE1D" stroke-width="1.5" stroke-linecap="round" stroke-linejoin="round"/>
</g>
</svg>
