<svg width="38" height="38" viewBox="0 0 38 38" fill="none" xmlns="http://www.w3.org/2000/svg">
<path d="M35.0401 14.5629L30.0889 15.9125L26.7187 13.4663V8.34278C28.5598 8.46003 30.327 9.11059 31.8046 10.2151C33.2823 11.3196 34.4065 12.8303 35.0401 14.5629ZM28.0701 20.4903H24.1799L22.9781 16.7895L26.125 14.5029L29.2719 16.7895L28.0701 20.4903ZM18.9857 17.6878C18.9698 17.6147 18.9404 17.5453 18.8991 17.483L17.8986 15.9826L21.812 17.0513L23.0844 20.9659L20.4125 24.3503L18.9857 17.6878ZM25.5312 8.33269V13.4663L22.1611 15.9125L17.8125 14.725V13.2175C18.584 11.8194 19.6959 10.6387 21.0452 9.78478C22.3945 8.93088 23.9375 8.43142 25.5312 8.33269ZM6.82812 14.1989L8.43125 15.8021C9.08736 16.4619 9.46863 17.3461 9.49805 18.2761C9.52748 19.2062 9.20287 20.1127 8.58978 20.8127L4.40206 16.625L6.82812 14.1989ZM19.5937 35.3792L17.0448 32.8302C16.9334 32.7189 16.7824 32.6564 16.625 32.6564C16.4676 32.6564 16.3166 32.7189 16.2052 32.8302L14.8437 34.1917L13.9021 33.25L15.2635 31.8885C15.3748 31.7772 15.4374 31.6262 15.4374 31.4688C15.4374 31.3113 15.3748 31.1603 15.2635 31.049L13.4823 29.2677C13.3709 29.1564 13.2199 29.0939 13.0625 29.0939C12.9051 29.0939 12.7541 29.1564 12.6427 29.2677L11.2812 30.6292L10.3396 29.6875L11.701 28.326C11.8123 28.2147 11.8749 28.0637 11.8749 27.9062C11.8749 27.7488 11.8123 27.5978 11.701 27.4865L5.76353 21.549C5.65218 21.4377 5.50119 21.3751 5.34375 21.3751C5.1863 21.3751 5.03531 21.4377 4.92396 21.549L3.5625 22.9104L2.62081 21.9688L3.98228 20.6073C4.09359 20.4959 4.15612 20.3449 4.15612 20.1875C4.15612 20.0301 4.09359 19.8791 3.98228 19.7677L2.62081 18.4062L3.5625 17.4646L20.5354 34.4375L19.5937 35.3792ZM22.0542 32.9187L21.375 33.5979L9.44062 21.6636C10.2763 20.7376 10.7247 19.5264 10.6934 18.2795C10.6622 17.0327 10.1536 15.8454 9.27259 14.9625L7.66946 13.3594L9.84971 11.1791C10.0724 10.9565 10.3744 10.8314 10.6893 10.8314C11.0042 10.8314 11.3062 10.9565 11.5288 11.1791L11.8851 11.5354C11.9488 12.851 12.4955 14.0969 13.4206 15.0346C14.3456 15.9723 15.5841 16.5358 16.8987 16.6173L17.8493 18.05L19.6068 26.2521C19.6209 26.3149 19.6452 26.3751 19.6787 26.4302L22.3119 30.8198C22.5098 31.1481 22.5919 31.5332 22.5452 31.9137C22.4984 32.2941 22.3256 32.648 22.0542 32.9187ZM20.8572 25.7094L24.0362 21.6766H28.2031L31.2229 25.8162C29.6732 26.8103 27.8667 27.3298 26.0256 27.3108C24.1845 27.2918 22.3891 26.7352 20.8602 25.7094H20.8572ZM32.1836 25.1216L29.1602 20.9778L30.4368 17.0501L35.3804 15.6999C35.7781 17.4127 35.6893 19.2024 35.124 20.8674C34.5588 22.5323 33.5395 24.0062 32.1812 25.1227L32.1836 25.1216Z" fill="#2AAE1D"/>
</svg>
