<svg width="36" height="36" viewBox="0 0 36 36" fill="none" xmlns="http://www.w3.org/2000/svg">
<path d="M6.63745 20.25L7.98745 22.95C8.21245 23.4 8.54995 23.625 8.99995 23.625H28.125C28.575 23.625 28.9125 23.4 29.1375 22.95L30.4875 20.25H6.63745Z" fill="#2AAE1D"/>
<path d="M4.5 19.125H6.075H31.05H32.625C33.3 19.125 33.75 18.675 33.75 18C33.75 17.325 33.3 16.875 32.625 16.875H31.5C31.275 10.9125 26.8875 5.9625 21.2625 4.725C21.2625 4.5 21.375 4.275 21.375 3.9375C21.375 2.3625 20.1375 1.125 18.5625 1.125C16.9875 1.125 15.75 2.3625 15.75 3.9375C15.75 4.275 15.8625 4.5 15.8625 4.725C10.2375 5.9625 5.9625 10.9125 5.625 16.875H4.5C3.825 16.875 3.375 17.325 3.375 18C3.375 18.675 3.825 19.125 4.5 19.125Z" fill="#2AAE1D"/>
<path d="M27.675 25.0875C27.5625 24.8625 27.225 24.75 27 24.75C26.55 24.75 26.2125 24.75 25.7625 24.8625L24.525 26.55C23.2875 28.2375 21.2625 29.25 19.125 29.25H18.7875H18H16.5375H15.75C15.075 29.25 14.625 28.8 14.625 28.125C14.625 27.45 15.075 27 15.75 27H19.6875C20.025 26.6625 20.25 26.1 20.25 25.5375V25.425C20.25 24.975 19.9125 24.75 19.4625 24.75H14.9625C12.2625 24.75 10.125 25.9875 8.88745 27.9L6.86245 31.05C6.74995 31.275 6.74995 31.6125 6.86245 31.8375L9.11245 35.55C9.22495 35.775 9.33745 35.8875 9.56245 35.8875H9.67495C9.78745 35.8875 10.0125 35.8875 10.125 35.775C12.9375 33.8625 16.3125 32.85 19.6875 32.85C22.1625 32.85 24.4125 31.5 25.5375 29.3625L27.5625 25.7625C27.7875 25.65 27.7875 25.3125 27.675 25.0875Z" fill="white"/>
</svg>
