<svg width="40" height="40" viewBox="0 0 40 40" fill="none" xmlns="http://www.w3.org/2000/svg">
<path d="M7.96225 14.6726L7.11371 13.1266C6.21985 13.6174 5.34611 14.168 4.51611 14.7632L5.54425 16.196C6.31678 15.642 7.13011 15.1293 7.96225 14.6726Z" fill="white"/>
<path d="M13.2549 12.5473L12.7996 10.8434C11.8144 11.1068 10.8345 11.4333 9.88745 11.8137L10.5447 13.4502C11.4267 13.096 12.3381 12.7924 13.2549 12.5473Z" fill="white"/>
<path d="M30.7381 12.6787C29.8269 12.2233 28.877 11.8184 27.9133 11.4748L27.3213 13.136C28.2181 13.4555 29.1021 13.8323 29.9498 14.2561L30.7381 12.6787Z" fill="white"/>
<path d="M38.062 18.2006L36.7634 19.393C37.4065 20.0931 38.0132 20.8396 38.5672 21.6106L40.0001 20.5824C39.4052 19.7536 38.7533 18.952 38.062 18.2006Z" fill="white"/>
<path d="M32.4241 15.6872C33.215 16.2119 33.9833 16.7912 34.7061 17.4084L35.8511 16.0672C35.0743 15.4036 34.249 14.7811 33.3981 14.2173L32.4241 15.6872Z" fill="white"/>
<path d="M0 18.9097L1.34053 20.0554C1.95773 19.3333 2.62587 18.6414 3.3256 17.9992L2.1332 16.7004C1.38107 17.3901 0.6636 18.1337 0 18.9097Z" fill="white"/>
<path d="M14.1715 13.3588L15.0574 13.3593L16.1322 11.7296L19.5868 11.7537L18.0411 17.0821C18.0411 17.2376 18.1675 17.3643 18.323 17.3643H19.7443L22.7131 11.8583L25.438 11.9488C26.2136 11.9488 26.8412 11.3548 26.8412 10.622C26.8418 9.88987 26.2131 9.29587 25.4387 9.29587L22.6935 9.3876L19.7446 3.91787L18.3226 3.9176C18.1671 3.91787 18.0407 4.04454 18.0407 4.2L19.5758 9.49134L16.1131 9.52134L15.0567 7.92307L14.1708 7.92334C14.053 7.92334 13.9578 8.01827 13.9578 8.13587V13.1468C13.9584 13.2639 14.0539 13.3595 14.1715 13.3588Z" fill="#2AAE1D"/>
<path d="M22.8414 20.0821C21.6871 19.8191 20.5076 19.6856 19.3338 19.6856C11.9523 19.6856 5.64964 24.7199 4.00724 31.9275C3.69244 33.3089 3.56991 34.7035 3.62551 36.0823H5.39044V36.0819C5.33378 34.8348 5.44098 33.5721 5.72578 32.3217C6.30298 32.4713 8.88338 33.1873 8.80138 34.0176C8.73231 34.7139 8.50831 35.5069 8.69471 36.0817H10.3168C10.5396 35.9195 10.7544 35.8421 10.9646 36.0632C10.9702 36.0693 10.9775 36.0756 10.9834 36.0817H23.7928C20.7779 34.1613 20.3514 30.7687 20.3514 30.7687C20.1386 30.6761 20.7472 28.2663 19.7994 27.9768C18.85 27.6876 18.2516 27.9195 16.9072 27.3196C15.5611 26.7197 16.0651 25.8815 16.2862 23.8811C16.3806 23.0275 16.5978 22.2633 16.8746 21.6629C17.6743 21.5221 18.4958 21.4487 19.3335 21.4487C20.3751 21.4487 21.4239 21.5671 22.4499 21.8008C26.0888 22.6296 29.1871 24.8261 31.1739 27.9848C32.6716 30.3667 33.4012 33.0804 33.3151 35.8312C33.1999 35.9149 33.0762 35.9984 32.9468 36.0823H35.0678C35.2076 32.9165 34.3894 29.7857 32.6664 27.0461C30.4295 23.4885 26.94 21.0156 22.8414 20.0821Z" fill="white"/>
</svg>
