<svg width="29" height="32" viewBox="0 0 29 32" fill="none" xmlns="http://www.w3.org/2000/svg">
<g clip-path="url(#clip0_228_1194)">
<path d="M22.65 32H6.34999C4.66653 31.9978 3.05263 31.3086 1.86224 30.0837C0.671845 28.8587 0.00214227 27.1979 0 25.4656L0 6.53441C0.00214227 4.80205 0.671845 3.14128 1.86224 1.91632C3.05263 0.691357 4.66653 0.00220449 6.34999 0L22.65 0C24.3337 0.00147078 25.948 0.690388 27.1386 1.91551C28.3291 3.14063 28.9986 4.80183 29 6.53441V25.4656C28.9986 27.1982 28.3291 28.8594 27.1386 30.0845C25.948 31.3096 24.3337 31.9985 22.65 32ZM6.34999 1.11082C4.9526 1.11229 3.61285 1.68418 2.62475 2.70098C1.63664 3.71778 1.0809 5.09644 1.07947 6.53441V25.4656C1.0809 26.9036 1.63664 28.2822 2.62475 29.299C3.61285 30.3158 4.9526 30.8877 6.34999 30.8892H22.65C24.0474 30.8877 25.3871 30.3158 26.3753 29.299C27.3634 28.2822 27.9191 26.9036 27.9205 25.4656V6.53441C27.9191 5.09644 27.3634 3.71778 26.3753 2.70098C25.3871 1.68418 24.0474 1.11229 22.65 1.11082H6.34999Z" fill="#2AAE1D"/>
<path d="M5.30011 11.0055C5.31731 11.2702 5.25717 11.5343 5.12739 11.7636C5.06742 11.8461 4.98838 11.912 4.89742 11.9551C4.80647 11.9983 4.70649 12.0174 4.60655 12.0108C4.50657 12.0177 4.40651 11.9987 4.31552 11.9555C4.22452 11.9123 4.14551 11.8463 4.0857 11.7636C3.95687 11.534 3.89767 11.27 3.91569 11.0055V6.56217C3.89764 6.3132 3.95314 6.06442 4.07491 5.84847C4.12832 5.76976 4.20066 5.70664 4.28484 5.66527C4.36903 5.6239 4.46221 5.60569 4.55527 5.61242C4.68826 5.61104 4.81903 5.64757 4.93309 5.71795C5.07147 5.81252 5.19214 5.93199 5.28931 6.07064L7.83687 9.53362V6.62882C7.81847 6.36341 7.87768 6.0984 8.00688 5.86791C8.07046 5.78972 8.14993 5.72684 8.23969 5.68369C8.32945 5.64054 8.42731 5.61818 8.52638 5.61818C8.62545 5.61818 8.72331 5.64054 8.81307 5.68369C8.90283 5.72684 8.9823 5.78972 9.04588 5.86791C9.17728 6.09758 9.23753 6.36301 9.21859 6.62882V11.1638C9.23594 11.3979 9.18219 11.6317 9.06477 11.833C9.00804 11.9068 8.93458 11.9652 8.85082 12.0029C8.76707 12.0407 8.67558 12.0567 8.5844 12.0496C8.44113 12.051 8.30086 12.0074 8.1823 11.9247C8.03193 11.818 7.90048 11.6856 7.79369 11.5331L5.30011 8.13676V11.0055Z" fill="white"/>
<path d="M12.7998 5.69851C13.0554 5.68181 13.3105 5.73854 13.5366 5.86236C13.6177 5.91628 13.6833 5.99163 13.7265 6.08053C13.7697 6.16943 13.7889 6.26863 13.7821 6.36778C13.7867 6.46438 13.7668 6.56055 13.7242 6.64676C13.6816 6.73297 13.6178 6.80624 13.5393 6.85932C13.3121 6.98255 13.056 7.03831 12.7998 7.02039H11.6772V8.13121H12.646C12.9022 8.11328 13.1582 8.16905 13.3854 8.29228C13.4648 8.34584 13.5291 8.42 13.5717 8.50727C13.6144 8.59455 13.6339 8.69185 13.6283 8.78937C13.6334 8.88643 13.6136 8.98317 13.571 9.06991C13.5284 9.15665 13.4644 9.23037 13.3854 9.28369C13.1582 9.40691 12.9022 9.46268 12.646 9.44476H11.6772V10.6139H12.8403C13.0973 10.5966 13.3541 10.6523 13.5824 10.775C13.6568 10.833 13.7171 10.9079 13.7586 10.9939C13.8001 11.0799 13.8217 11.1746 13.8217 11.2707C13.8217 11.3667 13.8001 11.4614 13.7586 11.5474C13.7171 11.6334 13.6568 11.7084 13.5824 11.7664C13.3548 11.8914 13.0977 11.9481 12.8403 11.9302H11.2211C10.9616 11.9584 10.7007 11.8916 10.4844 11.7414C10.4065 11.6432 10.3486 11.5299 10.3143 11.4083C10.28 11.2866 10.2699 11.159 10.2847 11.0332V6.69825C10.2555 6.4183 10.3307 6.13739 10.4951 5.91234C10.7075 5.74733 10.9726 5.67095 11.2373 5.69851H12.7998Z" fill="white"/>
<path d="M17.0853 11.1388C17.036 11.3871 16.9124 11.6134 16.7318 11.7858C16.5519 11.9396 16.3232 12.0197 16.0895 12.0107C15.8658 12.0256 15.6456 11.9487 15.4769 11.7969C15.3016 11.5937 15.1864 11.3432 15.145 11.0749L14.1356 6.56217C14.1356 6.52884 14.1356 6.48996 14.1356 6.44831C14.1322 6.38263 14.1322 6.31681 14.1356 6.25114C14.1288 6.16552 14.1402 6.07939 14.1691 5.99879C14.198 5.9182 14.2437 5.84508 14.303 5.78459C14.4438 5.66308 14.624 5.60062 14.8076 5.60964C14.9697 5.60366 15.1278 5.66123 15.2502 5.77071C15.3731 5.8952 15.452 6.05847 15.4742 6.23447L16.1974 10.1946L17.204 6.21781C17.241 6.04037 17.3363 5.88147 17.4739 5.76793C17.619 5.66339 17.7935 5.61071 17.9705 5.61797C18.1446 5.61013 18.3161 5.66405 18.4562 5.77071C18.5938 5.89013 18.6887 6.05332 18.7261 6.23447L19.7165 10.1946L20.4398 6.32889C20.4631 6.124 20.5448 5.93077 20.6745 5.77348C20.7372 5.71532 20.8106 5.67062 20.8903 5.64201C20.97 5.61339 21.0545 5.60145 21.1387 5.60686C21.2285 5.60311 21.318 5.61761 21.4023 5.64954C21.4866 5.68147 21.5639 5.73019 21.6299 5.79292C21.6924 5.85325 21.7418 5.9265 21.7748 6.00787C21.8078 6.08923 21.8237 6.17687 21.8215 6.26502C21.8252 6.33254 21.8252 6.40023 21.8215 6.46775C21.8215 6.54273 21.7972 6.61493 21.781 6.68713L20.715 11.0749C20.6742 11.3527 20.5571 11.6129 20.3777 11.8247C20.1989 11.9494 19.9879 12.0161 19.7718 12.0161C19.5558 12.0161 19.3448 11.9494 19.166 11.8247C18.9982 11.6635 18.8848 11.4514 18.8421 11.2193L17.9408 7.65633L17.0853 11.1388Z" fill="white"/>
<path d="M26.3769 9.99739C26.3863 10.2843 26.3329 10.5698 26.2208 10.8327C26.1088 11.0956 25.9408 11.3292 25.7293 11.5164C25.2494 11.9236 24.6395 12.1325 24.0183 12.1024C23.5403 12.1162 23.0659 12.0134 22.6339 11.8025C22.2507 11.6025 22.0591 11.3693 22.0591 11.0999C22.0557 11.0133 22.0706 10.9271 22.1028 10.847C22.1349 10.7669 22.1835 10.695 22.2453 10.6361C22.3826 10.5139 22.5605 10.4512 22.7418 10.4612C22.9621 10.4879 23.1785 10.541 23.3868 10.6195C23.6539 10.7139 23.9331 10.7673 24.2153 10.7777C24.3942 10.7837 24.5683 10.718 24.7011 10.5945C24.7646 10.5377 24.8152 10.4672 24.8493 10.388C24.8833 10.3088 24.9 10.2228 24.8981 10.1362C24.9011 10.0468 24.8848 9.95777 24.8503 9.87563C24.8157 9.79349 24.7638 9.72029 24.6984 9.66137C24.4376 9.47979 24.1468 9.34895 23.8402 9.27536C23.3481 9.15898 22.8907 8.92172 22.507 8.58387C22.3772 8.43776 22.2769 8.26649 22.212 8.08006C22.1471 7.89364 22.119 7.69578 22.1292 7.49804C22.1214 7.22923 22.172 6.96202 22.2776 6.71599C22.3831 6.46996 22.5408 6.25135 22.7391 6.07619C23.182 5.6934 23.7481 5.49523 24.3259 5.52078C24.7371 5.5038 25.1457 5.59458 25.5134 5.7846C25.6432 5.83755 25.7559 5.92715 25.8385 6.04309C25.9211 6.15903 25.9702 6.2966 25.9802 6.43999C25.9842 6.52174 25.9716 6.60344 25.9432 6.67992C25.9149 6.7564 25.8714 6.826 25.8156 6.88431C25.6903 6.99797 25.5263 7.05589 25.3595 7.04538C25.1789 7.03355 25.0004 6.99905 24.8279 6.94263C24.6535 6.88158 24.472 6.84424 24.2882 6.83155C24.1126 6.82208 23.9392 6.87503 23.797 6.98151C23.7384 7.02584 23.6911 7.08411 23.6592 7.15132C23.6272 7.21854 23.6115 7.29272 23.6135 7.36752C23.6135 7.62023 23.8834 7.83684 24.4231 8.00902L24.7146 8.10344C25.193 8.24177 25.6301 8.50149 25.9856 8.8588C26.2515 9.17364 26.3913 9.58056 26.3769 9.99739Z" fill="white"/>
<path d="M17.5496 14.5268H4.2019V15.371H17.5496V14.5268Z" fill="#2AAE1D"/>
<path d="M17.5496 17.1483H4.2019V17.9925H17.5496V17.1483Z" fill="#2AAE1D"/>
<path d="M17.5496 19.7671H4.2019V20.6141H17.5496V19.7671Z" fill="#2AAE1D"/>
<path d="M24.326 22.3886H4.2019V23.2328H24.326V22.3886Z" fill="#2AAE1D"/>
<path d="M24.326 25.0102H4.2019V25.8544H24.326V25.0102Z" fill="#2AAE1D"/>
<path d="M24.326 27.6289H4.2019V28.4731H24.326V27.6289Z" fill="#2AAE1D"/>
<path d="M24.326 13.4715H19.3982V21.0806H24.326V13.4715Z" fill="white"/>
</g>
<defs>
<clipPath id="clip0_228_1194">
<rect width="29" height="32" fill="white"/>
</clipPath>
</defs>
</svg>
