<svg width="44" height="31" viewBox="0 0 44 31" fill="none" xmlns="http://www.w3.org/2000/svg">
<path d="M2.59375 11.875H3.3125V14.0312C3.3125 15.2172 4.28281 16.1875 5.46875 16.1875C5.72031 16.1875 5.96469 16.1372 6.1875 16.0581V16.9062C6.1875 18.0922 7.15781 19.0625 8.34375 19.0625H9.78125C10.9672 19.0625 11.9375 18.0922 11.9375 16.9062V11.875H13.6769C14.2375 13.14 15.4953 14.0312 16.9688 14.0312H17.1556C17.5006 14.52 17.9175 14.9441 18.4062 15.2819V16.7122C18.4062 18.66 18.0613 20.5791 17.3713 22.4047C16.6309 24.3956 16.25 26.48 16.25 28.6003V29.8438C16.25 30.2391 16.5734 30.5625 16.9688 30.5625H28.4688C28.8641 30.5625 29.1875 30.2391 29.1875 29.8438V28.6003C29.1875 26.48 28.8066 24.3956 28.0662 22.4047C27.3762 20.5791 27.0312 18.66 27.0312 16.7122V15.2819C28.1741 14.4841 28.9287 13.2406 29.13 11.875H32.0625V16.9062C32.0625 18.0922 33.0328 19.0625 34.2188 19.0625H35.6562C36.8422 19.0625 37.8125 18.0922 37.8125 16.9062V16.0581C38.0353 16.1372 38.2797 16.1875 38.5312 16.1875C39.7172 16.1875 40.6875 15.2172 40.6875 14.0312V11.875H41.4062C42.5922 11.875 43.5625 10.9047 43.5625 9.71875C43.5625 8.53281 42.5922 7.5625 41.4062 7.5625H40.6875V5.40625C40.6875 4.22031 39.7172 3.25 38.5312 3.25C38.2797 3.25 38.0353 3.30031 37.8125 3.37938V2.53125C37.8125 1.34531 36.8422 0.375 35.6562 0.375H34.2188C33.0328 0.375 32.0625 1.34531 32.0625 2.53125V7.5625H29.1875V6.125C29.1875 4.53656 27.9009 3.25 26.3125 3.25H19.125C17.7378 3.25 16.5734 4.24188 16.3075 5.55C16.0703 5.45656 15.8044 5.40625 15.5312 5.40625C14.3453 5.40625 13.375 6.37656 13.375 7.5625H11.9375V2.53125C11.9375 1.34531 10.9672 0.375 9.78125 0.375H8.34375C7.15781 0.375 6.1875 1.34531 6.1875 2.53125V3.37938C5.96469 3.30031 5.72031 3.25 5.46875 3.25C4.28281 3.25 3.3125 4.22031 3.3125 5.40625V7.5625H2.59375C1.40781 7.5625 0.4375 8.53281 0.4375 9.71875C0.4375 10.9047 1.40781 11.875 2.59375 11.875ZM40.6875 9H41.4062C41.8016 9 42.125 9.32344 42.125 9.71875C42.125 10.1141 41.8016 10.4375 41.4062 10.4375H40.6875V9ZM29.1875 9H32.0625V10.4375H29.1875V9ZM14.8125 7.5625C14.8125 7.16719 15.1359 6.84375 15.5312 6.84375C15.9266 6.84375 16.25 7.16719 16.25 7.5625V9.71875C16.25 10.1141 16.5734 10.4375 16.9688 10.4375C17.3641 10.4375 17.6875 10.1141 17.6875 9.71875V7.5625V6.125C17.6875 5.33437 18.3344 4.6875 19.125 4.6875H26.3125C27.1031 4.6875 27.75 5.33437 27.75 6.125V11.1562C27.75 12.4284 27.06 13.6216 25.9531 14.2684C25.7303 14.3906 25.5938 14.6278 25.5938 14.8866V16.7122C25.5938 18.8325 25.9747 20.9169 26.715 22.9078C27.405 24.7334 27.75 26.6525 27.75 28.6003V29.125H17.6875V28.6003C17.6875 26.6525 18.0325 24.7334 18.7225 22.9078C19.4628 20.9169 19.8438 18.8325 19.8438 16.7122V14.8866C19.8438 14.6278 19.7072 14.3906 19.4844 14.2684C18.9453 13.9522 18.4853 13.4994 18.1691 12.9531C18.0397 12.7303 17.8097 12.5938 17.5509 12.5938H16.9688C15.7828 12.5938 14.8125 11.6234 14.8125 10.4375V7.5625ZM11.9375 9H13.375V10.4375H11.9375V9ZM2.59375 9H3.3125V10.4375H2.59375C2.19844 10.4375 1.875 10.1141 1.875 9.71875C1.875 9.32344 2.19844 9 2.59375 9Z" fill="#2AAE1D"/>
</svg>
