<svg width="23" height="23" viewBox="0 0 23 23" fill="none" xmlns="http://www.w3.org/2000/svg">
<path d="M19.7425 3.93066V6.03899C19.7425 6.80566 19.2633 7.76399 18.7842 8.24316L14.6633 11.8849C14.0883 12.364 13.705 13.3224 13.705 14.089V18.2099C13.705 18.7849 13.3217 19.5515 12.8425 19.839L11.5008 20.7015C10.255 21.4682 8.52995 20.6057 8.52995 19.0724V13.9932C8.52995 13.3224 8.14662 12.4599 7.76329 11.9807L7.31287 11.5111C7.01579 11.1949 6.95829 10.7157 7.19787 10.3419L12.1046 2.46441C12.2771 2.18649 12.5837 2.01399 12.9192 2.01399H17.8258C18.88 2.01399 19.7425 2.87649 19.7425 3.93066Z" fill="#FFB900"/>
<path d="M9.91909 3.48024L6.517 8.93316C6.19117 9.46024 5.44367 9.53691 5.01242 9.08649L4.12117 8.14733C3.642 7.66816 3.25867 6.80566 3.25867 6.23066V4.02649C3.25867 2.87649 4.12117 2.01399 5.17533 2.01399H9.1045C9.85201 2.01399 10.312 2.83816 9.91909 3.48024Z" fill="#FFB900"/>
</svg>
