<svg width="22" height="22" viewBox="0 0 22 22" fill="none" xmlns="http://www.w3.org/2000/svg">
<path fill-rule="evenodd" clip-rule="evenodd" d="M13.5686 18.179C14.1336 18.1224 14.5154 18.7222 14.2485 19.2077C14.0604 19.5498 13.7953 19.8485 13.4777 20.093C13.1539 20.3425 12.7781 20.5339 12.3751 20.6624C11.9718 20.7911 11.5437 20.8562 11.1139 20.8562C10.6842 20.8562 10.256 20.7911 9.85278 20.6624C9.44972 20.5339 9.07401 20.3425 8.75018 20.093C8.43259 19.8485 8.16747 19.5498 7.97941 19.2077C7.71249 18.7222 8.09427 18.1224 8.65932 18.179C8.83555 18.1967 10.2148 18.3316 11.1139 18.3316C12.0131 18.3316 13.3923 18.1967 13.5686 18.179Z" fill="white"/>
<path fill-rule="evenodd" clip-rule="evenodd" d="M7.8183 1.91358C9.89381 0.920738 12.326 0.88696 14.4305 1.82175L14.6186 1.90529C16.8238 2.88481 18.2357 5.00701 18.2357 7.34212V8.50021C18.2357 9.43112 18.4467 10.3508 18.8541 11.1952L19.0974 11.6996C20.2148 14.0158 18.7596 16.7232 16.1477 17.1873L16.0005 17.2134C12.7692 17.7875 9.45583 17.7875 6.22461 17.2134C3.57755 16.7432 2.17714 13.9281 3.45807 11.6522L3.66619 11.2825C4.17992 10.3697 4.44895 9.34825 4.44895 8.31046V7.14296C4.44895 4.92653 5.75399 2.90104 7.8183 1.91358Z" fill="white"/>
</svg>
