<svg width="33" height="33" viewBox="0 0 33 33" fill="none" xmlns="http://www.w3.org/2000/svg">
<path d="M16.1215 32.243C12.933 32.243 9.81605 31.2975 7.16488 29.526C4.51371 27.7546 2.44738 25.2368 1.22718 22.2909C0.00698517 19.3451 -0.312274 16.1036 0.309777 12.9764C0.931829 9.84909 2.46725 6.97652 4.72188 4.72188C6.97652 2.46725 9.84909 0.931829 12.9764 0.309777C16.1036 -0.312274 19.3451 0.00698517 22.2909 1.22718C25.2368 2.44738 27.7546 4.51371 29.526 7.16488C31.2975 9.81605 32.243 12.933 32.243 16.1215C32.2396 20.3961 30.54 24.4947 27.5173 27.5173C24.4947 30.54 20.3961 32.2396 16.1215 32.243ZM16.1215 1.28973C13.1881 1.28973 10.3205 2.1596 7.88141 3.78933C5.44234 5.41907 3.54131 7.73548 2.41873 10.4456C1.29615 13.1558 1.00243 16.138 1.57472 19.015C2.147 21.8921 3.55959 24.5349 5.63385 26.6092C7.70811 28.6834 10.3509 30.096 13.228 30.6683C16.1051 31.2406 19.0872 30.9469 21.7974 29.8243C24.5075 28.7017 26.8239 26.8007 28.4537 24.3616C30.0834 21.9225 30.9533 19.055 30.9533 16.1215C30.9499 12.1889 29.3861 8.41838 26.6054 5.63763C23.8246 2.85687 20.0541 1.29314 16.1215 1.28973ZM12.2523 23.215C12.0813 23.215 11.9173 23.147 11.7964 23.0261C11.6754 22.9052 11.6075 22.7411 11.6075 22.5701V9.6729C11.6077 9.55724 11.639 9.44375 11.6981 9.34434C11.7572 9.24493 11.842 9.16325 11.9436 9.10786C12.0451 9.05247 12.1597 9.02541 12.2753 9.02953C12.3909 9.03364 12.5032 9.06876 12.6006 9.13122L22.9183 15.5798C23.0116 15.6377 23.0887 15.7184 23.1421 15.8143C23.1955 15.9102 23.2235 16.0182 23.2235 16.128C23.2235 16.2377 23.1955 16.3457 23.1421 16.4416C23.0887 16.5375 23.0116 16.6182 22.9183 16.6761L12.6006 23.1247C12.4954 23.1872 12.3746 23.2185 12.2523 23.215ZM12.8972 10.8337V21.4094L21.3449 16.1215L12.8972 10.8337Z" fill="white"/>
</svg>
