<svg width="23" height="23" viewBox="0 0 23 23" fill="none" xmlns="http://www.w3.org/2000/svg">
<path fill-rule="evenodd" clip-rule="evenodd" d="M19.1667 10.5417C19.1667 6.83676 16.1633 3.83334 12.4584 3.83334C8.75346 3.83334 5.75004 6.83676 5.75004 10.5417C5.75004 14.2466 8.75346 17.25 12.4584 17.25C16.1633 17.25 19.1667 14.2466 19.1667 10.5417ZM12.4584 1.91667C17.2218 1.91667 21.0834 5.77822 21.0834 10.5417C21.0834 15.3052 17.2218 19.1667 12.4584 19.1667C10.4219 19.1667 8.55029 18.4609 7.07474 17.2806L3.55268 20.8026C3.17845 21.1769 2.57163 21.1769 2.1974 20.8026C1.82317 20.4284 1.82317 19.8216 2.1974 19.4474L5.71947 15.9253C4.53918 14.4498 3.83337 12.5781 3.83337 10.5417C3.83337 5.77822 7.69488 1.91667 12.4584 1.91667Z" fill="white"/>
</svg>
