<svg width="18" height="18" viewBox="0 0 18 18" fill="none" xmlns="http://www.w3.org/2000/svg">
<g clip-path="url(#clip0_60_3352)">
<path d="M9 0.75C4.44375 0.75 0.75 4.44375 0.75 9C0.75 13.5562 4.44375 17.25 9 17.25C13.5562 17.25 17.25 13.5562 17.25 9C17.25 4.44375 13.5562 0.75 9 0.75ZM16.4955 9.09075L14.712 10.3864L12.297 9.60188L11.2695 6.4395L12.762 4.38525H14.904C15.9008 5.65838 16.5 7.25775 16.5 9C16.5 9.03075 16.4959 9.06 16.4955 9.09075ZM11.5028 1.93687L12.1549 3.94425L10.6613 6H7.33838L5.84475 3.94425L6.49688 1.93687C7.28063 1.659 8.12063 1.5 8.99963 1.5C9.87862 1.5 10.719 1.659 11.5028 1.93687ZM3.096 4.38525H5.238L6.7305 6.4395L5.703 9.60188L3.288 10.3864L1.5045 9.09075C1.5045 9.06038 1.5 9.03075 1.5 9C1.5 7.25775 2.09925 5.65838 3.096 4.38525ZM2.82188 13.248L3.52012 11.0996L5.9325 10.3159L8.62537 12.2723V14.8088L6.76462 16.1606C5.14537 15.6555 3.76388 14.6149 2.82188 13.248ZM11.2358 16.161L9.375 14.8091V12.2726L12.0679 10.3162L14.4802 11.1L15.1785 13.2484C14.2369 14.6152 12.855 15.6559 11.2358 16.161Z" fill="white"/>
</g>
<defs>
<clipPath id="clip0_60_3352">
<rect width="18" height="18" fill="white"/>
</clipPath>
</defs>
</svg>
